<svg width="21" height="20" viewBox="0 0 21 20" fill="none" xmlns="http://www.w3.org/2000/svg">
<path d="M2.51172 16.2493L6.59766 7.05609C7.19531 5.71208 8.17188 4.57514 9.41016 3.78592L15.1484 0.113338C15.2656 0.039105 15.4023 3.49369e-05 15.5391 3.49369e-05C15.9375 -0.00387207 16.2617 0.320409 16.2617 0.722831V0.785343C16.2617 0.886925 16.2422 0.984601 16.207 1.07837L13.8711 6.90762C13.7969 7.09125 13.7617 7.2866 13.7617 7.48195C13.7617 7.69684 13.8086 7.91172 13.8945 8.11098L17.5117 16.2493H9.42188L9.88281 14.8662L11.4609 14.3387C11.7148 14.2528 11.8867 14.0145 11.8867 13.7449C11.8867 13.4753 11.7148 13.237 11.4609 13.151L9.88281 12.6236L9.35547 11.0451C9.26953 10.7951 9.03125 10.6232 8.76172 10.6232C8.49219 10.6232 8.25391 10.7951 8.16797 11.049L7.64062 12.6275L6.0625 13.1549C5.80859 13.2409 5.63672 13.4792 5.63672 13.7488C5.63672 14.0184 5.80859 14.2567 6.0625 14.3427L7.64062 14.8701L8.10156 16.2493H2.51172ZM10.9336 5.52454C10.8906 5.39561 10.7734 5.30966 10.6367 5.30966C10.5 5.30966 10.3828 5.39561 10.3398 5.52454L10.0781 6.31376L9.28906 6.57553C9.16016 6.6185 9.07422 6.73571 9.07422 6.87246C9.07422 7.0092 9.16016 7.12641 9.28906 7.16939L10.0781 7.43116L10.3398 8.22038C10.3828 8.34931 10.5 8.43526 10.6367 8.43526C10.7734 8.43526 10.8906 8.34931 10.9336 8.22038L11.1953 7.43116L11.9844 7.16939C12.1133 7.12641 12.1992 7.0092 12.1992 6.87246C12.1992 6.73571 12.1133 6.6185 11.9844 6.57553L11.1953 6.31376L10.9336 5.52454ZM1.26172 17.4995H18.7617C19.4531 17.4995 20.0117 18.0582 20.0117 18.7498C20.0117 19.4413 19.4531 20 18.7617 20H1.26172C0.570312 20 0.0117188 19.4413 0.0117188 18.7498C0.0117188 18.0582 0.570312 17.4995 1.26172 17.4995Z" fill="#4C4E8B"/>
</svg>
