<svg width="19" height="20" viewBox="0 0 19 20" fill="none" xmlns="http://www.w3.org/2000/svg">
<path d="M4.5265 8.81401L0.568437 14.5989C0.452939 14.7845 0.572187 15.0257 0.790809 15.0494L8.60044 15.8684L4.5265 8.81401ZM0.801308 12.5386L3.62464 7.99836L0.750684 6.29209C0.650561 6.23272 0.523438 6.30397 0.523438 6.41938V12.4611C0.523438 12.6106 0.72181 12.6663 0.801308 12.5386ZM1.2078 16.5527L8.4977 19.8057C8.69644 19.8966 8.92332 19.7526 8.92332 19.5363V17.0993L1.2903 16.2718C1.12343 16.2532 1.05668 16.4792 1.2078 16.5527ZM4.25351 6.98677L7.25084 1.68243C7.41359 1.42044 7.11622 1.11651 6.8466 1.26903L1.1913 4.92834C1.09868 4.98846 1.10168 5.12353 1.19618 5.17994L4.25351 6.98677ZM9.52331 7.36454H13.6186L10.0344 1.11614C9.91705 0.927631 9.72018 0.833374 9.52331 0.833374C9.32644 0.833374 9.12956 0.927631 9.01219 1.11614L5.42799 7.36454H9.52331ZM18.2959 6.29209L15.422 7.99873L18.2453 12.539C18.3244 12.6667 18.5232 12.611 18.5232 12.4611V6.41938C18.5232 6.30397 18.3961 6.23272 18.2959 6.29209ZM14.7931 6.98677L17.8504 5.17957C17.9453 5.12316 17.9479 4.98809 17.8553 4.92797L12.2 1.26903C11.9304 1.11651 11.633 1.42044 11.7958 1.68243L14.7931 6.98677ZM17.7563 16.2718L10.1233 17.0989V19.5359C10.1233 19.7526 10.3502 19.8962 10.5489 19.8053L17.8388 16.5523C17.9899 16.4792 17.9232 16.2532 17.7563 16.2718ZM14.5201 8.81401L10.4465 15.8684L18.2562 15.0494C18.4748 15.0253 18.594 14.7845 18.4786 14.5989L14.5201 8.81401ZM9.52331 8.55202H5.75724L9.52331 15.0739L13.2894 8.55202H9.52331Z" fill="#98BA52"/>
</svg>
