<svg width="40" height="40" viewBox="0 0 40 40" fill="none" xmlns="http://www.w3.org/2000/svg">
<path d="M8 11C8 9.89543 8.89543 9 10 9H29.6C30.7046 9 31.6 9.89543 31.6 11V29.9408C31.6 31.0453 30.7046 31.9408 29.6 31.9408H10C8.89543 31.9408 8 31.0453 8 29.9408V11Z" fill="#F7DF1E"/>
<path d="M14.2052 28.171L16.0111 27.1086C16.3596 27.709 16.6765 28.2171 17.4368 28.2171C18.1655 28.2171 18.6251 27.9401 18.6251 26.8622V19.5321H20.8429V26.8927C20.8429 29.1255 19.4964 30.1419 17.5318 30.1419C15.7577 30.1419 14.7279 29.2488 14.2051 28.1708M22.0475 27.94L23.8532 26.9237C24.3286 27.6783 24.9465 28.2326 26.0395 28.2326C26.9585 28.2326 27.5444 27.786 27.5444 27.17C27.5444 26.4309 26.9424 26.1691 25.9286 25.738L25.3742 25.5068C23.7741 24.8449 22.7128 24.0132 22.7128 22.2577C22.7128 20.6408 23.9801 19.4088 25.9604 19.4088C27.3703 19.4088 28.3842 19.8862 29.1128 21.1336L27.386 22.2116C27.0057 21.5494 26.594 21.2877 25.9603 21.2877C25.3107 21.2877 24.8988 21.6881 24.8988 22.2116C24.8988 22.8583 25.3107 23.1203 26.2612 23.5206L26.8156 23.7516C28.7008 24.537 29.7622 25.3377 29.7622 27.1393C29.7622 29.0798 28.1939 30.1422 26.0869 30.1422C24.0276 30.1422 22.6968 29.1875 22.0474 27.9401" fill="black"/>
</svg>
