<svg width="40" height="40" viewBox="0 0 40 40" fill="none" xmlns="http://www.w3.org/2000/svg">
<g clip-path="url(#clip0_213_795)">
<path d="M19.7861 32.532C26.8278 32.532 32.5361 26.8236 32.5361 19.782C32.5361 12.7404 26.8278 7.03198 19.7861 7.03198C12.7445 7.03198 7.03613 12.7404 7.03613 19.782C7.03613 26.8236 12.7445 32.532 19.7861 32.532Z" fill="black"/>
<path d="M28.2168 29.3474L16.8317 14.682H14.6865V24.8779H16.4027V16.8613L26.8698 30.3849C27.3413 30.0693 27.7913 29.7227 28.2168 29.3474Z" fill="url(#paint0_linear_213_795)"/>
<path fill-rule="evenodd" clip-rule="evenodd" d="M23.3281 14.682H25.028V24.882H23.3281V14.682Z" fill="url(#paint1_linear_213_795)"/>
</g>
<defs>
<linearGradient id="paint0_linear_213_795" x1="22.4782" y1="23.5363" x2="27.5074" y2="29.7697" gradientUnits="userSpaceOnUse">
<stop stop-color="white"/>
<stop offset="1" stop-color="white" stop-opacity="0"/>
</linearGradient>
<linearGradient id="paint1_linear_213_795" x1="24.1781" y1="14.6822" x2="24.1496" y2="22.1729" gradientUnits="userSpaceOnUse">
<stop stop-color="white"/>
<stop offset="1" stop-color="white" stop-opacity="0"/>
</linearGradient>
<clipPath id="clip0_213_795">
<rect x="7" y="7" width="25.6" height="25.6" rx="3" fill="white"/>
</clipPath>
</defs>
</svg>
