<svg width="40" height="40" viewBox="0 0 40 40" fill="none" xmlns="http://www.w3.org/2000/svg">
<path d="M32.6 19.7992C32.6 26.869 26.8692 32.6002 19.7997 32.6002C12.7305 32.6002 7 26.869 7 19.7992C7 12.7305 12.7303 7 19.7997 7C26.8692 7 32.6 12.7305 32.6 19.7992Z" fill="black"/>
<path d="M25.3961 11.7359C24.0958 11.7804 22.9608 12.4982 22.1156 13.4887C21.1799 14.5763 20.5582 15.8649 20.1092 17.1816C19.3072 16.5238 18.6889 15.6727 17.4014 15.3025C16.4066 15.0166 15.3619 15.1343 14.4011 15.8501C13.9464 16.1899 13.6326 16.7032 13.4835 17.1873C13.0974 18.4421 13.8893 19.56 14.249 19.9606L15.0358 20.803C15.1976 20.9685 15.5886 21.3994 15.3973 22.017C15.1919 22.6896 14.3814 23.1239 13.5504 22.8685C13.1791 22.7546 12.6459 22.4782 12.7655 22.0896C12.8146 21.93 12.9287 21.81 12.9901 21.6739C13.0458 21.555 13.073 21.4669 13.0901 21.4138C13.2418 20.9187 13.0342 20.274 12.5035 20.1098C12.008 19.9578 11.5013 20.0784 11.3048 20.7158C11.0818 21.4402 11.4287 22.7551 13.2861 23.3271C15.4623 23.9969 17.3024 22.8115 17.5637 21.267C17.7283 20.2995 17.291 19.5799 16.4908 18.6558L15.8382 17.9339C15.4434 17.5392 15.3078 16.8664 15.7166 16.3494C16.0617 15.9131 16.5529 15.7273 17.3578 15.9459C18.5332 16.2645 19.0566 17.08 19.9303 17.7378C19.5701 18.9217 19.3339 20.1096 19.1207 21.1748L18.9897 21.9693C18.3653 25.2449 17.8883 27.0441 16.6489 28.0769C16.3993 28.2547 16.0423 28.5203 15.5046 28.5395C15.222 28.5479 15.1309 28.3537 15.1271 28.2688C15.1209 28.0714 15.2875 27.9803 15.3982 27.8918C15.5641 27.8014 15.8145 27.6514 15.7972 27.1714C15.7794 26.6045 15.3094 26.1127 14.6307 26.135C14.1219 26.1521 13.3468 26.6305 13.376 27.507C13.4059 28.4124 14.2495 29.0904 15.5217 29.0475C16.2016 29.0243 17.7203 28.7481 19.2164 26.9695C20.958 24.9302 21.4453 22.593 21.8118 20.8822L22.2211 18.6234C22.4475 18.6505 22.691 18.669 22.9553 18.6754C25.1245 18.7213 26.209 17.5981 26.2255 16.7806C26.2366 16.286 25.9014 15.7987 25.4314 15.8104C25.0957 15.8197 24.6737 16.0436 24.5728 16.5081C24.4733 16.9634 25.2628 17.3749 24.6458 17.7755C24.2076 18.0589 23.4223 18.2584 22.3158 18.0966L22.5169 16.9846C22.9275 14.8762 23.4339 12.283 25.3552 12.2195C25.4956 12.2129 26.0073 12.2255 26.0194 12.5646C26.0226 12.6771 25.9945 12.7068 25.8621 12.9656C25.727 13.1674 25.6763 13.3399 25.6829 13.5371C25.7012 14.0749 26.1104 14.4291 26.7034 14.4085C27.496 14.3821 27.7234 13.6106 27.7104 13.2142C27.677 12.2818 26.6949 11.693 25.3961 11.7359Z" fill="white"/>
</svg>
